<svg data-v-70b83f88="" version="1.0"
    xmlns="http://www.w3.org/2000/svg"
    xmlns:xlink="http://www.w3.org/1999/xlink" width="100%" height="100%" viewBox="0 0 340.000000 250.000000" preserveAspectRatio="xMidYMid meet" color-interpolation-filters="sRGB" style="margin: auto;">
    <g data-v-70b83f88="" fill="#feffff" class="bordersvg b-d1" transform="translate(37.3839111328125,52.85749816894531)">
        <path fill-opacity="0" stroke="#feffff" stroke-width="3" d="M 124.28499603271484 50.45249938964844 A 72.14249801635742 72.14249801635742 0 1 1 124.28499603271484 93.8324966430664"></path>
        <g transform="translate(0,50.45249938964844)">
            <g>
                <rect data-gra="graph-name-bg" stroke-width="2" class="i-icon-bg" x="0" y="0" width="248.5699920654297" height="43.37999725341797" fill-opacity="0"></rect>
            </g>
            <g transform="translate(10,3)">
                <g data-gra="path-name" fill-rule="" class="tp-name">
                    <g transform="scale(1)">
                        <g>
                            <path d="M17.14 0L17.14 0 11.86 0 0.41-28.63 5.73-28.63 14.44-6.83 22.54-28.63 27.77-28.63 17.14 0ZM40.13-21.02L40.13-21.02Q42.13-21.02 43.77-20.27 45.4-19.51 46.57-18.18 47.73-16.85 48.37-15.09 49-13.33 49-11.33L49-11.33 49 0 44.09 0 44.09-11.33Q44.09-12.31 43.73-13.17 43.36-14.03 42.66-14.73L42.66-14.73Q41.27-16.12 39.31-16.12L39.31-16.12Q37.3-16.12 35.91-14.73L35.91-14.73Q34.52-13.33 34.52-11.33L34.52-11.33 34.52 0 29.61 0 29.61-28.63 34.52-28.63 34.52-18.82Q35.63-19.8 37.02-20.41 38.41-21.02 40.13-21.02ZM67.53-20.49L72.44-20.49 72.44 0 67.53 0 67.53-10.23Q67.53-12.68 65.81-14.4L65.81-14.4Q64.1-16.12 61.64-16.12L61.64-16.12Q60.46-16.12 59.37-15.67 58.29-15.22 57.47-14.4L57.47-14.4Q55.75-12.68 55.75-10.23L55.75-10.23Q55.75-7.81 57.47-6.09L57.47-6.09Q58.29-5.24 59.37-4.81 60.46-4.38 61.64-4.38L61.64-4.38Q62.87-4.38 63.85-4.79L63.85-4.79 65.61-0.41Q63.73 0.53 61.23 0.53L61.23 0.53Q58.98 0.53 57.08-0.31 55.18-1.15 53.79-2.62 52.4-4.09 51.62-6.05 50.84-8.02 50.84-10.23L50.84-10.23Q50.84-12.48 51.62-14.44 52.4-16.4 53.79-17.87 55.18-19.35 57.08-20.19 58.98-21.02 61.23-21.02L61.23-21.02Q63.24-21.02 64.79-20.41 66.35-19.8 67.53-18.86L67.53-18.86 67.53-20.49ZM89.37-20.45L94.28-20.45 94.28 0 89.37 0 89.37-1.55Q88.27-0.61 86.88-0.02 85.49 0.57 83.77 0.57L83.77 0.57Q81.77 0.57 80.13-0.18 78.49-0.94 77.33-2.25 76.16-3.56 75.53-5.32 74.89-7.08 74.89-9.08L74.89-9.08 74.89-20.45 79.8-20.45 79.8-9.08Q79.8-7.16 81.23-5.73L81.23-5.73Q82.62-4.34 84.59-4.34L84.59-4.34Q86.59-4.34 87.98-5.73L87.98-5.73Q89.37-7.12 89.37-9.08L89.37-9.08 89.37-20.45ZM104.92-12.68L104.92-12.68Q105.41-12.56 106.55-12.11 107.7-11.66 108.91-10.86 110.11-10.06 111.01-8.88 111.91-7.69 111.91-6.05L111.91-6.05Q111.91-4.62 111.44-3.44 110.97-2.25 110.07-1.35 109.17-0.45 107.86 0.04 106.55 0.53 104.92 0.53L104.92 0.53Q102.42 0.53 100.27-0.37 98.13-1.27 96.82-2.58L96.82-2.58 100.21-5.97Q101.28-4.7 102.48-4.34 103.69-3.97 104.51-3.97L104.51-3.97Q105.78-3.97 106.39-4.46 107-4.95 107-5.64L107-5.64Q107-6.14 106.59-6.5 106.19-6.87 105.63-7.12 105.08-7.36 104.51-7.51 103.94-7.65 103.57-7.77L103.57-7.77Q103.08-7.94 101.91-8.34 100.75-8.75 99.54-9.53 98.33-10.31 97.43-11.49 96.53-12.68 96.53-14.36L96.53-14.36Q96.53-16.08 97.13-17.32 97.72-18.57 98.7-19.39 99.68-20.21 100.95-20.59 102.22-20.98 103.57-20.98L103.57-20.98Q105.65-20.98 107.11-20.49 108.56-20 109.5-19.43L109.5-19.43Q110.56-18.73 111.3-17.87L111.3-17.87 107.86-14.44Q107.04-15.5 106.06-15.99 105.08-16.48 103.98-16.48L103.98-16.48Q103.12-16.48 102.28-16.08 101.44-15.67 101.44-14.77L101.44-14.77Q101.44-14.28 101.81-13.93 102.18-13.58 102.71-13.35 103.24-13.13 103.83-12.97 104.43-12.8 104.92-12.68ZM127.46-4.91L127.46-4.91 138.7-4.91 138.7 0 127.46 0 122.55 0 122.55-4.91 122.55-28.59 127.46-28.59 127.46-4.91ZM145.86 0L140.95 0 140.95-20.45 145.86-20.45 145.86 0ZM140.95-23.72L140.95-28.63 145.86-28.63 145.86-23.72 140.95-23.72ZM156.7-12.68L156.7-12.68Q157.19-12.56 158.34-12.11 159.48-11.66 160.69-10.86 161.9-10.06 162.8-8.88 163.7-7.69 163.7-6.05L163.7-6.05Q163.7-4.62 163.23-3.44 162.75-2.25 161.85-1.35 160.96-0.45 159.65 0.04 158.34 0.53 156.7 0.53L156.7 0.53Q154.21 0.53 152.06-0.37 149.91-1.27 148.6-2.58L148.6-2.58 152-5.97Q153.06-4.7 154.27-4.34 155.47-3.97 156.29-3.97L156.29-3.97Q157.56-3.97 158.17-4.46 158.79-4.95 158.79-5.64L158.79-5.64Q158.79-6.14 158.38-6.5 157.97-6.87 157.42-7.12 156.86-7.36 156.29-7.51 155.72-7.65 155.35-7.77L155.35-7.77Q154.86-7.94 153.69-8.34 152.53-8.75 151.32-9.53 150.12-10.31 149.22-11.49 148.32-12.68 148.32-14.36L148.32-14.36Q148.32-16.08 148.91-17.32 149.5-18.57 150.48-19.39 151.47-20.21 152.73-20.59 154-20.98 155.35-20.98L155.35-20.98Q157.44-20.98 158.89-20.49 160.34-20 161.28-19.43L161.28-19.43Q162.35-18.73 163.08-17.87L163.08-17.87 159.65-14.44Q158.83-15.5 157.85-15.99 156.86-16.48 155.76-16.48L155.76-16.48Q154.9-16.48 154.06-16.08 153.22-15.67 153.22-14.77L153.22-14.77Q153.22-14.28 153.59-13.93 153.96-13.58 154.49-13.35 155.02-13.13 155.62-12.97 156.21-12.8 156.7-12.68ZM175.72-4.91L176.95 0 172.45 0Q171.06 0 169.83-0.53 168.6-1.06 167.7-1.98 166.8-2.9 166.27-4.13 165.74-5.36 165.74-6.75L165.74-6.75 165.74-24.58 170.65-25.81 170.65-18 173.51-18 174.74-13.09 170.65-13.09 170.65-6.75Q170.65-5.97 171.18-5.44 171.71-4.91 172.45-4.91L172.45-4.91 175.72-4.91ZM183.49 0L178.58 0 178.58-20.45 183.49-20.45 183.49 0ZM178.58-23.72L178.58-28.63 183.49-28.63 183.49-23.72 178.58-23.72ZM196.66-21.02L196.66-21.02Q198.67-21.02 200.3-20.27 201.94-19.51 203.11-18.18 204.27-16.85 204.91-15.09 205.54-13.33 205.54-11.33L205.54-11.33 205.54 0 200.63 0 200.63-11.33Q200.63-13.38 199.2-14.73L199.2-14.73Q197.81-16.12 195.85-16.12L195.85-16.12Q193.84-16.12 192.45-14.73L192.45-14.73Q191.06-13.33 191.06-11.33L191.06-11.33 191.06 0 186.15 0 186.15-20.45 191.06-20.45 191.06-18.9Q192.16-19.84 193.56-20.43 194.95-21.02 196.66-21.02ZM228.98-20.45L228.98-2.05Q228.98 0.16 228.14 2.13 227.3 4.09 225.83 5.56 224.36 7.04 222.39 7.89 220.43 8.75 218.18 8.75L218.18 8.75Q216.34 8.75 214.7 8.18 213.07 7.61 211.68 6.54L211.68 6.54 215.23 3.03Q216.54 3.84 218.18 3.84L218.18 3.84Q220.67 3.84 222.35 2.09L222.35 2.09Q224.07 0.37 224.07-2.05L224.07-2.05 224.07-10.27Q224.07-12.64 222.35-14.44L222.35-14.44Q220.63-16.16 218.18-16.16L218.18-16.16Q215.81-16.16 214.01-14.44L214.01-14.44Q212.29-12.64 212.29-10.27L212.29-10.27Q212.29-7.81 214.01-6.09L214.01-6.09Q215.81-4.38 218.18-4.38L218.18-4.38Q219.41-4.38 220.39-4.79L220.39-4.79 222.23-0.2Q220.39 0.53 218.26 0.53L218.26 0.53 218.18 0.53Q215.97 0.53 214.01-0.31 212.04-1.15 210.57-2.62 209.1-4.09 208.24-6.05 207.38-8.02 207.38-10.27L207.38-10.27Q207.38-12.52 208.12-14.48 208.85-16.44 210.18-17.92 211.51-19.39 213.37-20.23 215.23-21.07 217.44-21.07L217.44-21.07Q219.57-21.07 221.21-20.43 222.84-19.8 224.07-18.86L224.07-18.86 224.07-20.45 228.98-20.45Z" transform="translate(-0.4099999964237213, 28.6299991607666)"></path>
                        </g>
                    </g>
                </g>
            </g>
        </g>
    </g>
    <defs v-gra="od"></defs>
</svg>